<?xml version="1.0" encoding="UTF-8" standalone="no"?>
<!-- Created with Inkscape (http://www.inkscape.org/) -->

<svg
   width="500mm"
   height="500mm"
   viewBox="0 0 600 600"
   version="1.1"
   id="svg5"
   xmlns="http://www.w3.org/2000/svg"
   xmlns:svg="http://www.w3.org/2000/svg">
  <defs
     id="defs2" />
  <g
     id="layer1">
    <path
       style="fill:#000000;fill-opacity:1;fill-rule:nonzero;stroke:none;stroke-width:0.264583"
       id="path44"
       d="m 53.536742,118.73989 c 0.475467,0.84718 1.028785,1.79691 2.013254,2.09028 1.031645,-0.80097 2.113373,-1.5413 3.094932,-2.40293 0.06566,-0.0576 -0.163049,-0.1402 -0.241533,-0.1018 -0.134628,0.0658 -4.15826,1.30645 -3.702508,2.54422 0.04211,0.11436 0.131432,0.20526 0.197147,0.30789 0.309663,0.28689 0.616614,0.3518 1.019553,0.36852 0,0 3.167356,-2.39224 3.167356,-2.39224 v 0 c -0.283839,0.14416 -0.465346,0.15302 -0.759677,0.006 -0.164039,-0.17183 0.247955,-0.32801 0.163616,-0.283 -5.346922,2.85367 -3.437467,1.9423 0.207235,-0.49336 -0.02299,0.0512 -0.01606,0.13488 -0.06896,0.15367 -0.573519,0.20368 -1.468842,-1.37634 -1.648862,-1.75714 0,0 -3.441552,1.95956 -3.441552,1.95956 z" />
    <path
       style="fill:#000000;fill-opacity:1;fill-rule:nonzero;stroke:none;stroke-width:0.264583"
       id="path46"
       d="m 112.21895,118.61103 c -0.43743,1.01716 -0.92126,2.60247 -0.18006,3.60525 0.11866,0.16055 0.29685,0.26704 0.44528,0.40056 0.16222,0.0501 0.31733,0.13818 0.48668,0.15031 0.15434,0.0111 0.32306,-0.005 0.45678,-0.0827 2.02349,-1.17815 4.0223,-1.49547 4.07886,-3.72026 -0.62349,-2.0425 -3.00913,0.78306 -4.03707,1.49062 -0.0425,0.0292 -0.11234,0.55142 -0.13053,0.67073 0.003,3.34618 4.49739,-0.96659 4.88772,-1.22129 0.13276,-0.3239 0.6749,-1.16524 0.54001,-1.55029 -0.0459,-0.13093 -0.15181,-0.37391 -0.27581,-0.31169 -3.51193,1.76208 -3.20971,0.92398 -3.64056,2.57371 -0.2508,2.42682 3.90233,0.63502 3.88756,-1.4175 -0.0486,-0.28175 -0.16358,-0.43512 -0.36644,-0.61974 0,0 -3.35127,2.15494 -3.35127,2.15494 v 0 c 0.14083,0.007 0.14266,0.0887 0.14821,0.22248 -0.63372,1.56218 3.22192,-3.26411 3.29754,-1.47219 0.007,0.16997 -0.22307,-0.78287 -0.0206,-0.54579 0.0433,-0.0887 0.21867,-0.30901 0.12977,-0.26614 -1.11669,0.53861 -2.12547,1.29372 -3.26635,1.77899 -0.11072,0.0471 0.006,-0.29429 -0.10225,-0.34619 -0.0835,-0.0399 -0.0216,0.18517 -0.0512,0.27283 -0.18105,0.53547 -0.25089,0.58032 -0.55729,1.06709 0.99988,-0.52029 1.98364,-1.07279 2.99963,-1.56086 0.18466,-0.0887 -0.33601,0.38674 -0.52784,0.31483 -0.27214,-0.10203 -0.17292,-0.61314 -0.16213,-0.7979 0.0308,-0.10822 0.0507,-0.22015 0.0924,-0.32466 0.0295,-0.074 0.19023,-0.24341 0.11957,-0.20675 -1.11537,0.57864 -2.15848,1.29232 -3.28499,1.84893 -0.0678,0.0335 -0.0289,-0.15777 0.002,-0.2268 0.0375,-0.0839 0.29178,0.38654 0.12697,0.24459 -0.0464,0.33618 -0.029,0.40765 -0.20516,0.73269 -0.0772,0.14246 -0.42237,0.46738 -0.27439,0.40133 1.05337,-0.47016 2.01987,-1.11567 3.04776,-1.63918 0.12362,-0.063 -0.20077,0.2022 -0.32922,0.2546 -0.11615,0.0474 -0.24995,0.0217 -0.37492,0.0326 -0.12046,-0.083 -0.26764,-0.13667 -0.3614,-0.24896 -0.70226,-0.84107 -0.0521,-2.45519 0.36255,-3.27255 0,0 -3.6098,1.61433 -3.6098,1.61433 z" />
    <path
       style="fill:#000000;fill-opacity:1;fill-rule:nonzero;stroke:none;stroke-width:0.264583"
       id="path48"
       d="m 69.286006,148.93252 c 2.67307,1.87115 5.63762,3.25155 8.417021,4.9501 0.42346,0.29396 1.26112,0.72366 1.44319,1.32588 0.198189,0.65554 -0.510293,1.40279 -0.810373,1.78435 -0.901269,1.146 -1.878433,2.11174 -2.886893,3.16974 -0.59001,0.57317 -1.18002,1.14634 -1.770033,1.71951 0,0 3.465803,-1.4306 3.465803,-1.4306 v 0 c 0.589844,-0.57802 1.17969,-1.15605 1.769534,-1.73407 0.800769,-0.84047 2.246018,-2.27945 2.951911,-3.2863 0.47644,-0.67957 0.965073,-1.36057 0.641855,-2.21881 -0.262115,-0.69599 -1.018111,-1.05009 -1.571598,-1.42127 -2.781057,-1.64661 -5.74833,-2.99618 -8.323935,-4.96936 0,0 -3.326482,2.11083 -3.326482,2.11083 z" />
    <path
       style="fill:#000000;fill-opacity:1;fill-rule:nonzero;stroke:none;stroke-width:0.264583"
       id="path50"
       d="m 70.523467,180.90619 c 2.386002,2.504 5.587908,3.99082 8.669478,5.44242 3.070873,1.34858 6.246132,2.44967 9.534123,3.12821 1.96623,0.40576 2.537999,0.4354 4.524581,0.67983 4.746821,0.36679 9.469302,-0.42843 14.05904,-1.57464 1.865424,-0.52372 3.661627,-1.24972 5.332061,-2.23504 3.54254,-2.08959 4.52349,-2.50613 6.99737,-4.89086 0.93914,-0.92028 1.75488,-1.94311 2.5287,-3.00186 0,0 -3.60328,1.55698 -3.60328,1.55698 v 0 c -0.76061,1.02954 -1.5701,2.01888 -2.49189,2.91122 -0.342451,0.31977 -0.67146,0.65458 -1.027357,0.95932 -0.40073,0.34314 -1.763839,0.91488 -1.240649,0.98271 0.668218,0.0866 1.13163,-0.89398 1.805265,-0.90951 0.617971,-0.0143 -1.064847,0.63027 -1.61848,0.90521 -1.491324,0.74057 -2.086004,0.88161 -3.679616,1.42372 -4.558641,1.19202 -9.254781,2.01556 -13.98534,1.69344 -1.936227,-0.22447 -2.593063,-0.26218 -4.512027,-0.63957 -3.276158,-0.64431 -6.4442,-1.71161 -9.498219,-3.05445 -2.994869,-1.42527 -6.130978,-2.89059 -8.392033,-5.39589 0,0 -3.401727,2.01876 -3.401727,2.01876 z" />
    <path d="m 30,30 l 40,40"/>
  </g>
</svg>
